 <svg
      version="1.0"
      xmlns="http://www.w3.org/2000/svg"
      width="110pt"
      height="24.59pt"
      viewBox="0 0 3895.000000 871.000000"
      preserveAspectRatio="xMidYMid meet"
    >
      <g
        transform="translate(0.000000,871.000000) scale(0.100000,-0.100000)"
        fill="#FFFFFF"
        stroke="none"
      >
        <path
          d="M135 8628 c-3 -7 -4 -1923 -3 -4258 l3 -4245 4263 -3 4262 -2 0 4260
            0 4260 -4260 0 c-3399 0 -4262 -3 -4265 -12z m6817 -3355 c2 -258 2 -570 0
            -695 l-3 -228 -117 0 c-389 -1 -873 -66 -1227 -166 -330 -92 -558 -188 -1090
            -458 -668 -340 -991 -464 -1450 -560 -336 -69 -768 -116 -1081 -116 l-124 0 0
            223 c0 122 -3 435 -6 695 l-6 472 34 0 c113 0 504 23 613 36 468 53 810 143
            1240 323 55 24 300 143 545 265 576 288 825 393 1151 487 255 73 591 135 884
            164 206 19 235 21 452 23 l182 2 3 -467z"
        />
        <path
          d="M19137 8073 c-4 -3 -7 -1583 -7 -3510 l0 -3503 803 2 802 3 3 1283 2
            1282 1300 0 1300 0 0 775 0 775 -1300 0 -1300 0 0 675 0 675 1323 2 1322 3 3
            773 2 772 -2123 0 c-1168 0 -2127 -3 -2130 -7z"
        />
        <path
          d="M23995 8058 c-3 -13 -4 -1591 -3 -3508 l3 -3485 750 0 750 0 0 3505
            0 3505 -747 3 -748 2 -5 -22z"
        />
        <path
          d="M18065 8023 c-208 -16 -345 -68 -623 -237 -173 -105 -295 -166 -397
            -198 -112 -36 -127 -39 -240 -52 l-100 -11 -3 -472 -2 -473 750 0 750 0 0 725
            0 725 -47 -2 c-27 -1 -66 -3 -88 -5z"
        />
        <path
          d="M12718 6200 c-203 -19 -428 -70 -598 -135 -189 -71 -437 -214 -580
            -334 -30 -25 -66 -55 -80 -66 -65 -52 -220 -210 -294 -300 -193 -237 -305
            -417 -410 -661 -74 -174 -120 -318 -155 -493 -78 -381 -86 -753 -27 -1166 13
            -85 62 -293 93 -390 57 -176 169 -423 251 -555 45 -71 165 -236 233 -320 78
            -97 252 -272 323 -325 22 -17 56 -44 75 -61 166 -144 515 -322 771 -394 122
            -34 142 -38 205 -49 33 -5 92 -15 130 -21 81 -14 504 -8 630 8 171 22 435 99
            580 169 190 92 345 202 477 339 34 35 65 64 70 64 4 0 8 -101 8 -225 l0 -225
            755 0 755 0 0 2499 c0 2269 -1 2499 -16 2505 -9 3 -341 6 -739 6 -398 0 -730
            -3 -739 -6 -14 -5 -16 -35 -16 -225 0 -120 -4 -219 -8 -219 -4 0 -37 30 -72
            66 -125 127 -246 216 -426 311 -194 102 -364 151 -702 202 -79 12 -372 12
            -494 1z m687 -1425 c145 -19 184 -28 285 -65 200 -72 411 -231 522 -393 70
            -103 140 -270 173 -412 54 -238 43 -571 -26 -785 -33 -100 -111 -261 -160
            -326 -78 -107 -208 -223 -336 -301 -51 -31 -218 -94 -298 -114 -77 -18 -260
            -39 -339 -39 -186 1 -437 55 -576 124 -208 104 -399 301 -497 513 -96 207
            -137 551 -98 811 53 355 190 593 450 783 236 172 571 248 900 204z"
        />
        <path
          d="M28540 6200 c-142 -18 -237 -31 -280 -40 -318 -63 -535 -145 -818
            -306 -147 -84 -275 -179 -420 -312 -352 -322 -583 -661 -728 -1070 -48 -135
            -114 -391 -114 -444 0 -18 -5 -51 -10 -73 -21 -90 -32 -387 -21 -563 13 -208
            23 -273 67 -464 104 -446 329 -865 631 -1173 273 -279 476 -429 799 -588 330
            -162 726 -247 1152 -247 516 0 966 120 1372 365 252 152 365 247 666 559 11
            12 57 69 101 126 260 341 428 750 493 1201 29 206 29 571 0 779 -64 453 -224
            845 -489 1200 -101 135 -403 442 -506 515 -38 27 -89 64 -112 81 -126 96 -404
            242 -578 303 -49 18 -101 36 -113 42 -33 13 -284 69 -362 80 -269 38 -559 49
            -730 29z m382 -1461 c107 -10 136 -16 253 -52 85 -25 242 -105 310 -157 95
            -73 212 -195 272 -285 87 -132 130 -234 166 -395 31 -139 31 -434 0 -571 -55
            -243 -152 -418 -325 -585 -98 -95 -136 -123 -248 -182 -177 -94 -335 -132
            -550 -132 -324 0 -575 99 -816 323 -143 133 -260 355 -315 602 -21 90 -18 438
            3 535 38 168 81 270 172 408 91 137 189 233 337 327 137 88 267 133 459 159
            126 17 161 18 282 5z"
        />
        <path
          d="M16707 6063 c-4 -3 -7 -1131 -7 -2505 l0 -2498 750 0 750 0 -2 2503
            -3 2502 -741 3 c-407 1 -744 -1 -747 -5z"
        />
        <path
          d="M31265 6060 c-3 -5 10 -61 30 -122 20 -62 83 -259 140 -438 57 -179
            110 -345 118 -370 8 -25 50 -153 92 -285 42 -132 85 -265 95 -295 10 -30 42
            -129 70 -220 59 -185 152 -477 180 -560 10 -30 42 -129 70 -220 51 -161 134
            -418 189 -590 16 -47 43 -132 61 -190 18 -58 36 -114 40 -125 4 -11 34 -101
            65 -200 101 -318 117 -370 125 -390 4 -11 22 -67 40 -125 18 -58 36 -114 40
            -125 8 -21 102 -315 153 -475 16 -52 33 -104 37 -115 4 -11 13 -38 19 -60 7
            -22 17 -52 23 -67 l10 -28 699 0 699 0 9 22 c5 13 14 43 21 68 7 25 20 70 30
            100 10 30 23 75 30 100 26 92 33 115 40 135 4 11 13 38 19 60 15 55 46 159 87
            290 19 61 39 128 45 150 7 22 19 65 29 95 10 30 23 75 30 100 25 89 30 106 46
            155 9 28 20 64 24 80 5 17 34 113 65 215 32 102 61 199 65 215 5 17 18 62 30
            100 12 39 25 84 30 100 9 34 20 70 115 380 37 121 70 230 73 243 4 22 19 38
            28 29 5 -5 36 -107 73 -239 5 -18 39 -132 76 -253 37 -121 71 -233 75 -250 5
            -16 18 -61 30 -100 12 -38 26 -85 31 -102 5 -18 13 -48 18 -65 5 -18 19 -64
            31 -103 12 -38 25 -83 30 -100 7 -27 46 -155 102 -335 20 -65 31 -103 47 -162
            5 -18 15 -53 23 -78 14 -41 24 -75 49 -165 5 -16 17 -57 28 -90 10 -33 28 -94
            41 -135 12 -41 37 -124 56 -185 19 -60 39 -128 45 -150 6 -22 15 -50 20 -63 5
            -13 9 -32 9 -43 0 -19 11 -19 708 -17 l707 3 53 160 c28 88 62 192 73 230 12
            39 25 79 29 90 4 11 22 65 39 120 17 55 56 177 86 270 30 94 69 215 87 270 56
            180 87 278 142 445 29 91 68 212 86 270 18 58 45 143 60 190 25 78 135 420
            181 565 10 33 36 114 58 180 21 66 49 152 60 190 12 39 46 144 75 235 30 91
            82 253 116 360 34 107 65 206 70 220 5 14 43 133 85 265 42 132 85 265 95 295
            10 30 48 150 85 265 36 116 78 245 92 288 15 48 22 82 16 88 -5 5 -329 8 -798
            7 l-788 -3 -13 -40 c-7 -22 -36 -128 -64 -235 -29 -107 -60 -224 -70 -260 -17
            -61 -82 -303 -130 -485 -12 -44 -28 -105 -37 -135 -8 -30 -23 -86 -33 -125
            -10 -38 -25 -95 -33 -125 -9 -30 -25 -89 -36 -130 -11 -41 -40 -149 -65 -240
            -24 -91 -54 -201 -66 -245 -12 -44 -28 -105 -37 -135 -14 -52 -25 -96 -72
            -272 -42 -160 -63 -233 -66 -236 -6 -7 -49 128 -116 366 -5 17 -13 48 -19 67
            -5 19 -14 51 -20 70 -5 19 -14 50 -19 68 -5 17 -57 196 -116 397 -59 201 -111
            379 -115 395 -5 17 -60 208 -123 425 -64 217 -143 490 -177 605 -33 116 -65
            225 -71 243 l-11 32 -699 0 c-658 0 -700 -1 -705 -17 -3 -10 -9 -27 -14 -38
            -4 -11 -13 -40 -20 -65 -7 -25 -16 -56 -20 -70 -4 -14 -13 -43 -19 -65 -11
            -41 -35 -120 -77 -260 -13 -44 -29 -98 -35 -120 -6 -22 -15 -51 -19 -65 -4
            -14 -13 -45 -20 -70 -7 -25 -16 -56 -20 -70 -4 -14 -13 -45 -20 -70 -7 -25
            -16 -54 -20 -65 -5 -11 -11 -31 -15 -45 -3 -14 -10 -38 -15 -55 -5 -16 -13
            -46 -19 -65 -5 -19 -39 -136 -76 -260 -37 -124 -71 -238 -75 -255 -5 -16 -14
            -47 -19 -67 -6 -21 -15 -54 -21 -73 -5 -19 -14 -50 -19 -67 -5 -18 -44 -150
            -86 -293 -42 -143 -81 -275 -86 -292 -5 -18 -14 -50 -20 -70 -5 -21 -14 -51
            -18 -68 -9 -29 -12 -40 -26 -80 -6 -15 -12 -3 -25 50 -19 71 -59 222 -105 395
            -24 90 -64 238 -105 395 -10 39 -25 95 -33 125 -9 30 -27 100 -42 155 -15 55
            -40 148 -56 207 -27 102 -46 173 -89 333 -11 41 -29 110 -41 153 -11 42 -26
            100 -34 127 -144 542 -188 702 -197 712 -13 16 -1583 19 -1593 3z"
        />
      </g>
    </svg>